<svg  class="icon" viewBox="0 0 1024 1024" version="1.1" xmlns="http://www.w3.org/2000/svg"
     width="200" height="200">
    <path d="M368.160219 156.000305L93.115682 431.044842 7.053514 204.6064C-24.942549 120.420235 57.535612 37.942074 141.721777 69.938137L368.160219 156.000305z"
          fill="#FBAB5F" ></path>
    <path d="M310.834107 213.326417L150.441794 373.71873 81.087658 191.246374c-11.232022-29.552058 17.720035-58.506114 47.274093-47.274093l182.472356 69.354136z"
          fill="#FFD4B8" ></path>
    <path d="M655.844781 156.000305l275.042537 275.042537 86.062168-226.438442c31.998062-84.186164-50.480099-166.664326-134.668263-134.668263L655.844781 156.000305z"
          fill="#FBAB5F" ></path>
    <path d="M713.170893 213.326417l160.394313 160.394313 69.352136-182.472356c11.232022-29.552058-17.720035-58.506114-47.274093-47.274093l-182.472356 69.352136z"
          fill="#FFD4B8" ></path>
    <path d="M512.0025 522.34102m-438.760857 0a438.760857 438.760857 0 1 0 877.521714 0 438.760857 438.760857 0 1 0-877.521714 0Z"
          fill="#FBAB5F" ></path>
    <path d="M567.766609 907.533773c-242.326473 0-438.770857-196.444384-438.770857-438.770857 0-110.374216 40.76608-211.220413 108.048211-288.330564-99.882195 80.426157-163.81232 203.692398-163.81232 341.912668 0 242.326473 196.444384 438.770857 438.770857 438.770857 131.952258 0 250.288489-58.258114 330.722646-150.442294-75.230147 60.578118-170.850334 96.860189-274.958537 96.86019z"
          opacity=".1" ></path>
    <path d="M592.010656 539.609054h-158.432309c-52.786103 0-96.948189 41.834082-97.828191 94.612185-0.900002 53.916105 42.536083 97.904191 96.244188 97.904191 25.996051 0 49.582097-10.30802 66.90013-27.058053 7.308014-7.068014 18.974037-6.992014 26.288052 0.07 18.362036 17.722035 43.748085 28.210055 71.57614 26.874053 49.478097-2.378005 89.526175-42.834084 91.436178-92.332181 2.120004-54.898107-41.758082-100.070195-96.184188-100.070195z"
          fill="#FFFFFF" ></path>
    <path d="M561.580597 539.609054H462.422403c-21.076041 0-33.044065 24.122047-20.296039 40.90608l20.250039 26.658052c24.938049 32.832064 74.314145 32.832064 99.252194 0l20.250039-26.658052c12.748025-16.782033 0.778002-40.90608-20.298039-40.90608zM389.554261 636.007242c-0.614001 0-1.234002-0.038-1.858004-0.116l-123.724241-15.29403a14.998029 14.998029 0 0 1-13.046026-16.726033c1.016002-8.222016 8.508017-14.070027 16.726033-13.046025l123.724241 15.29403a15.002029 15.002029 0 1 1-1.822003 29.888058zM297.452081 759.301483a15.000029 15.000029 0 0 1-7.290014-28.120055l101.608198-56.36211a15.000029 15.000029 0 0 1 14.554029 26.234051l-101.608199 56.36211a14.936029 14.936029 0 0 1-7.264014 1.886004zM634.450739 636.007242a15.002029 15.002029 0 0 1-1.822003-29.888058l123.724241-15.29403c8.208016-1.026002 15.710031 4.824009 16.726033 13.046025a15.000029 15.000029 0 0 1-13.046026 16.726033l-123.724241 15.29403a14.972029 14.972029 0 0 1-1.858004 0.116zM726.552919 759.301483a14.934029 14.934029 0 0 1-7.262014-1.886004l-101.608199-56.36211a15.000029 15.000029 0 0 1 14.554029-26.234051l101.608198 56.36211a15.000029 15.000029 0 0 1-7.292014 28.120055zM319.790125 485.760949a15.000029 15.000029 0 0 1-15.00003-15.00003v-37.764073a15.000029 15.000029 0 0 1 30.000059 0v37.764073a15.000029 15.000029 0 0 1-15.000029 15.00003zM704.214875 485.760949a15.000029 15.000029 0 0 1-15.000029-15.00003v-37.764073a15.000029 15.000029 0 0 1 30.000059 0v37.764073c0 8.286016-6.714013 15.000029-15.00003 15.00003z"
          fill="#4A5058" ></path>
    <path d="M268.672025 241.044471c0 32.586064 26.416052 59.002115 59.002115 59.002115s59.002115-26.416052 59.002115-59.002115V101.766199a436.848853 436.848853 0 0 0-118.00423 55.430108v83.848164z m368.65872-139.278272v139.278272c0 32.586064 26.416052 59.002115 59.002115 59.002115s59.002115-26.416052 59.002115-59.002115V157.198307a436.794853 436.794853 0 0 0-118.00423-55.432108z m-184.33036-14.232028v209.92841c0 32.586064 26.416052 59.002115 59.002115 59.002115s59.002115-26.416052 59.002115-59.002115V87.534171A442.696865 442.696865 0 0 0 512.0025 83.572163c-20.012039 0-39.700078 1.368003-59.002115 3.962008z"
          opacity=".08"></path>
</svg>